<svg width="9" height="9" viewBox="0 0 9 9" fill="none" xmlns="http://www.w3.org/2000/svg">
<g clip-path="url(#clip0)">
<path d="M7.16456 1.54121C6.61835 0.598597 5.64818 0.0227197 4.56932 0.000711914C4.52327 -0.000237305 4.47691 -0.000237305 4.43084 0.000711914C3.352 0.0227197 2.38183 0.598597 1.83561 1.54121C1.27729 2.5047 1.26202 3.66204 1.79474 4.63712L4.02651 8.72205C4.02751 8.72386 4.02851 8.72567 4.02955 8.72746C4.12774 8.89813 4.30365 9.00001 4.50012 9.00001C4.69657 9.00001 4.87247 8.89811 4.97065 8.72746C4.97168 8.72567 4.97269 8.72386 4.97369 8.72205L7.20546 4.63712C7.73815 3.66204 7.72287 2.5047 7.16456 1.54121ZM4.50008 4.07813C3.80221 4.07813 3.23446 3.51038 3.23446 2.81251C3.23446 2.11464 3.80221 1.54688 4.50008 1.54688C5.19795 1.54688 5.76571 2.11464 5.76571 2.81251C5.76571 3.51038 5.19797 4.07813 4.50008 4.07813Z" fill="#E1E6E9"/>
</g>
<defs>
<clipPath id="clip0">
<rect width="9" height="9" fill="white"/>
</clipPath>
</defs>
</svg>
